<?xml version="1.0" encoding="UTF-8"?>
<svg xmlns="http://www.w3.org/2000/svg" id="Layer_1" data-name="Layer 1" viewBox="0 0 400 400">
  <defs>
    <style>
      .cls-1 {
        fill: #96c46c;
        stroke-width: 0px;
      }
    </style>
  </defs>
  <g id="Group_1637" data-name="Group 1637">
    <path class="cls-1" d="M147.59,216.76h-.18c-8.84,0-16-7.16-16-16s7.16-16,16-16h.18c8.84,0,16,7.16,16,16s-7.16,16-16,16Z"></path>
    <path class="cls-1" d="M252.76,216.76h-.18c-8.84,0-16-7.16-16-16s7.16-16,16-16h.18c8.84,0,16,7.16,16,16s-7.16,16-16,16Z"></path>
    <path class="cls-1" d="M198.64,292.14c-13.91,0-27.63-3.57-39.79-10.36-6.03-3.37-8.18-10.98-4.81-17.01s10.99-8.18,17.01-4.81c8.76,4.9,18.7,7.36,28.72,7.18.17,0,.33,0,.5,0,10.02.22,19.94-2.28,28.69-7.17,6.03-3.37,13.64-1.21,17.01,4.81,3.37,6.03,1.21,13.64-4.81,17.01-12.55,7.01-26.78,10.61-41.13,10.35-.46,0-.93.01-1.39.01Z"></path>
    <path class="cls-1" d="M200.34,369.51c-11.98,0-24.04-1.27-36.02-3.84-63.58-13.63-113.85-62.5-129.5-125.28-19.57-12.95-27.04-38.78-16.51-60.45,3.7-7.62,9.43-14.14,16.45-18.82,8.65-36.06,29.01-68.61,57.78-92.13,30.23-24.73,68.39-38.39,107.45-38.47,19.51,0,37.67,5.35,51.16,15.06,14.65,10.55,22.72,25.2,22.72,41.25,0,14.66-4.64,28.5-13.07,38.96-8.89,11.03-21.47,17.36-34.51,17.36-22.12,0-38.79-12.91-38.79-30.04,0-6.9,5.6-12.5,12.5-12.5s12.5,5.6,12.5,12.5c0,1.25,4.89,5.04,13.79,5.04,12.45,0,22.57-14.05,22.57-31.32s-21.46-31.32-48.85-31.32c-33.3.07-65.86,11.72-91.65,32.82-25.79,21.1-43.67,50.7-50.34,83.35-.78,3.81-3.29,7.04-6.78,8.74-4.53,2.2-8.24,5.91-10.44,10.44-5.44,11.2-.76,24.73,10.44,30.17,3.46,1.68,5.95,4.86,6.76,8.62,11.96,55.81,55.76,99.61,111.57,111.57,10.22,2.19,20.52,3.28,30.73,3.28,27.68,0,54.81-7.95,78.6-23.34,32.57-21.07,54.99-53.57,63.12-91.5.81-3.76,3.3-6.94,6.76-8.62,4.53-2.2,8.24-5.91,10.44-10.44,5.44-11.2.76-24.73-10.44-30.17-3.54-1.72-6.06-5-6.81-8.87-4.44-22.92-14.49-44.68-29.05-62.94-4.3-5.4-3.42-13.26,1.98-17.57,5.4-4.31,13.26-3.42,17.57,1.98,15.86,19.89,27.16,43.33,32.85,68.12,19.48,12.98,26.9,38.74,16.39,60.37-3.71,7.64-9.46,14.18-16.51,18.86-10.46,42.11-36.12,78.09-72.72,101.77-27.89,18.04-59.69,27.36-92.13,27.36Z"></path>
  </g>
</svg>
